<?xml version="1.0" encoding="iso-8859-1"?>
<!-- Generator: Adobe Illustrator 18.0.0, SVG Export Plug-In . SVG Version: 6.00 Build 0)  -->
<!DOCTYPE svg PUBLIC "-//W3C//DTD SVG 1.1//EN" "http://www.w3.org/Graphics/SVG/1.1/DTD/svg11.dtd">
<svg version="1.1" id="Capa_1" xmlns="http://www.w3.org/2000/svg" xmlns:xlink="http://www.w3.org/1999/xlink" x="0px" y="0px"
	 viewBox="0 0 297.5 297.5" style="enable-background:new 0 0 297.5 297.5;" xml:space="preserve">
<g>
	<g id="XMLID_3_">
		<g>
			<rect x="109.27" y="190.28" style="fill:#1ABC9C;" width="49.01" height="15.38"/>
			<path style="fill:#3498DB;" d="M199.03,76.32c26.34,0,47.76,21.42,47.76,47.75s-21.42,47.75-47.76,47.75
				c-18.61,0-35.66-10.94-43.42-27.87c-1.68-3.64-5.32-5.98-9.33-5.98h-25.01c-4.01,0-7.65,2.34-9.32,5.98
				c-7.77,16.93-24.82,27.87-43.43,27.87c-26.33,0-47.75-21.42-47.75-47.75s21.42-47.75,47.75-47.75H199.03z M105.92,119.46
				c2.8-2.8,2.8-7.35,0-10.15c-2.8-2.81-7.35-2.81-10.15,0l-33.85,33.84c-2.8,2.81-2.8,7.35,0,10.16c1.4,1.4,3.24,2.1,5.08,2.1
				s3.67-0.7,5.08-2.1L105.92,119.46z M89,102.54c2.8-2.81,2.8-7.35,0-10.16c-2.81-2.8-7.35-2.8-10.16,0L45,126.23
				c-2.81,2.8-2.81,7.35,0,10.15c1.4,1.4,3.24,2.11,5.08,2.11c1.83,0,3.67-0.71,5.07-2.11L89,102.54z"/>
			<path d="M297.25,13.89v192.66c0,48.15-39.17,87.32-87.32,87.32c-41.4,0-76.13-28.97-85.06-67.69H99.02
				c-5.67,0-10.26-4.6-10.26-10.26v-26.68c-6.46,2.02-13.27,3.09-20.24,3.09c-37.64,0-68.27-30.62-68.27-68.26
				S30.88,55.8,68.52,55.8h130.51c37.65,0,68.27,30.63,68.27,68.27s-30.62,68.26-68.27,68.26c-6.96,0-13.78-1.08-20.24-3.09v26.68
				c0,5.66-4.59,10.26-10.25,10.26H146.1c8.4,27.28,33.83,47.18,63.83,47.18c36.84,0,66.81-29.97,66.81-66.81V13.89
				c0-5.67,4.59-10.26,10.26-10.26C292.66,3.63,297.25,8.22,297.25,13.89z M246.79,124.07c0-26.33-21.42-47.75-47.76-47.75H68.52
				c-26.33,0-47.75,21.42-47.75,47.75s21.42,47.75,47.75,47.75c18.61,0,35.66-10.94,43.43-27.87c1.67-3.64,5.31-5.98,9.32-5.98
				h25.01c4.01,0,7.65,2.34,9.33,5.98c7.76,16.93,24.81,27.87,43.42,27.87C225.37,171.82,246.79,150.4,246.79,124.07z
				 M158.28,205.66v-15.38h-49.01v15.38H158.28z M119.2,169.77h29.15c-3.11-3.44-5.9-7.21-8.28-11.28h-12.59
				C125.1,162.56,122.31,166.33,119.2,169.77z"/>
			<path d="M105.92,109.31c2.8,2.8,2.8,7.35,0,10.15l-33.84,33.85c-1.41,1.4-3.24,2.1-5.08,2.1s-3.68-0.7-5.08-2.1
				c-2.8-2.81-2.8-7.35,0-10.16l33.85-33.84C98.57,106.5,103.12,106.5,105.92,109.31z"/>
			<path d="M89,92.38c2.8,2.81,2.8,7.35,0,10.16l-33.85,33.84c-1.4,1.4-3.24,2.11-5.07,2.11c-1.84,0-3.68-0.71-5.08-2.11
				c-2.81-2.8-2.81-7.35,0-10.15l33.84-33.85C81.65,89.58,86.19,89.58,89,92.38z"/>
		</g>
		<g>
		</g>
	</g>
</g>
<g>
</g>
<g>
</g>
<g>
</g>
<g>
</g>
<g>
</g>
<g>
</g>
<g>
</g>
<g>
</g>
<g>
</g>
<g>
</g>
<g>
</g>
<g>
</g>
<g>
</g>
<g>
</g>
<g>
</g>
</svg>
